<svg width="38" height="37" viewBox="0 0 38 37" fill="none" xmlns="http://www.w3.org/2000/svg">
<path d="M19.1667 29.2923C25.1267 29.2923 29.9583 24.4607 29.9583 18.5007C29.9583 12.5406 25.1267 7.70898 19.1667 7.70898C13.2066 7.70898 8.375 12.5406 8.375 18.5007C8.375 24.4607 13.2066 29.2923 19.1667 29.2923Z" stroke="#333333" stroke-width="1.5" stroke-linejoin="round"/>
<path d="M11.8045 5.73024C11.0994 4.82354 9.998 4.24023 8.76042 4.24023C6.63182 4.24023 4.90625 5.96581 4.90625 8.0944C4.90625 9.34909 5.50579 10.4637 6.434 11.1675" stroke="#333333" stroke-width="1.5" stroke-linecap="round" stroke-linejoin="round"/>
<path d="M26.5251 5.73488C27.2302 4.82554 28.3331 4.24023 29.5729 4.24023C31.7014 4.24023 33.427 5.96581 33.427 8.0944C33.427 9.34543 32.831 10.4572 31.9074 11.1613" stroke="#333333" stroke-width="1.5" stroke-linecap="round" stroke-linejoin="round"/>
<path d="M19.1666 12.334V18.5007L14.5416 23.1257" stroke="#333333" stroke-width="1.5" stroke-linecap="round" stroke-linejoin="round"/>
<path d="M9.91663 32.7611L11.4583 30.834M28.4166 32.7611L26.875 30.834" stroke="#333333" stroke-width="1.5" stroke-linecap="round" stroke-linejoin="round"/>
</svg>
