<svg width="36" height="18" viewBox="0 0 36 18" fill="none" xmlns="http://www.w3.org/2000/svg">
<path d="M6.04092 9.00386L12.7255 2.31923L12.7256 2.31922C13.0604 1.98435 13.0604 1.44145 12.7256 1.10658L12.7255 1.10653C12.3906 0.771789 11.8478 0.77177 11.5129 1.10654L11.5129 1.10657L4.22193 8.39753L4.2219 8.39756C3.88713 8.73242 3.88713 9.2753 4.2219 9.61017L4.22193 9.61019L11.5129 16.9012L11.5129 16.9012L11.516 16.9042C11.8567 17.2332 12.3996 17.2238 12.7286 16.8831L12.7286 16.8831C13.0495 16.5508 13.0495 16.0239 12.7286 15.6916L12.7286 15.6916L12.7255 15.6885L6.04092 9.00386Z" fill="white" stroke="white" stroke-width="0.5"/>
<path d="M29.9592 9.00386L23.2746 2.31923L23.2746 2.31922C22.9397 1.98435 22.9397 1.44145 23.2746 1.10658L23.2746 1.10653C23.6095 0.771789 24.1523 0.77177 24.4872 1.10654L24.4872 1.10657L31.7782 8.39753L31.7782 8.39756C32.113 8.73242 32.113 9.2753 31.7782 9.61017L31.7782 9.61019L24.4872 16.9012L24.4873 16.9012L24.4841 16.9042C24.1435 17.2332 23.6006 17.2238 23.2715 16.8831L23.2715 16.8831C22.9506 16.5508 22.9506 16.0239 23.2715 15.6916L23.2715 15.6916L23.2746 15.6885L29.9592 9.00386Z" fill="white" stroke="white" stroke-width="0.5"/>
</svg>
