<svg width="15" height="8" viewBox="0 0 15 8" fill="none" xmlns="http://www.w3.org/2000/svg">
<path d="M7.05648 7.25869L7.41003 6.90514L13.5458 0.769344C13.5458 0.769335 13.5458 0.769326 13.5459 0.769318C13.5627 0.752468 13.5901 0.752459 13.607 0.769291C13.6239 0.786233 13.6238 0.813595 13.607 0.83047L7.05648 7.25869ZM7.05648 7.25869L6.70292 6.90514L0.571892 0.774108C0.555083 0.759238 0.529451 0.75964 0.513093 0.775435C0.496366 0.791613 0.495464 0.817996 0.510738 0.835261L7.02585 7.35036L7.05648 7.25869ZM7.08711 7.35036L13.607 0.830523L7.0259 7.35042C7.04279 7.36724 7.07017 7.36724 7.08705 7.35042C7.08707 7.3504 7.08709 7.35038 7.08711 7.35036Z" fill="#999999" stroke="#999999"/>
</svg>
