<svg width="24" height="25" viewBox="0 0 24 25" fill="none" xmlns="http://www.w3.org/2000/svg">
<path d="M20.19 14.5598L19.06 12.6798C18.81 12.2698 18.59 11.4798 18.59 10.9998V9.1298C18.59 5.4998 15.64 2.5498 12.02 2.5498C8.38996 2.5598 5.43996 5.4998 5.43996 9.1298V10.9898C5.43996 11.4698 5.21996 12.2598 4.97996 12.6698L3.84996 14.5498C3.41996 15.2798 3.31996 16.1098 3.58996 16.8298C3.85996 17.5598 4.46996 18.1398 5.26996 18.3998C6.34996 18.7598 7.43996 19.0198 8.54996 19.2098C8.65996 19.2298 8.76996 19.2398 8.87996 19.2598C9.01996 19.2798 9.16996 19.2998 9.31996 19.3198C9.57996 19.3598 9.83996 19.3898 10.11 19.4098C10.74 19.4698 11.38 19.4998 12.02 19.4998C12.65 19.4998 13.28 19.4698 13.9 19.4098C14.13 19.3898 14.36 19.3698 14.58 19.3398C14.76 19.3198 14.94 19.2998 15.12 19.2698C15.23 19.2598 15.34 19.2398 15.45 19.2198C16.57 19.0398 17.68 18.7598 18.76 18.3998C19.53 18.1398 20.12 17.5598 20.4 16.8198C20.68 16.0698 20.6 15.2498 20.19 14.5598ZM12.75 10.4998C12.75 10.9198 12.41 11.2598 11.99 11.2598C11.57 11.2598 11.23 10.9198 11.23 10.4998V7.39981C11.23 6.9798 11.57 6.6398 11.99 6.6398C12.41 6.6398 12.75 6.9798 12.75 7.39981V10.4998Z" fill="#333333"/>
<path d="M14.8301 20.51C14.4101 21.67 13.3001 22.5 12.0001 22.5C11.2101 22.5 10.4301 22.18 9.88005 21.61C9.56005 21.31 9.32005 20.91 9.18005 20.5C9.31005 20.52 9.44005 20.53 9.58005 20.55C9.81005 20.58 10.0501 20.61 10.2901 20.63C10.8601 20.68 11.4401 20.71 12.0201 20.71C12.5901 20.71 13.1601 20.68 13.7201 20.63C13.9301 20.61 14.1401 20.6 14.3401 20.57C14.5001 20.55 14.6601 20.53 14.8301 20.51Z" fill="#333333"/>
</svg>
