<svg width="24" height="24" viewBox="0 0 24 24" fill="none" xmlns="http://www.w3.org/2000/svg">
<path d="M12.5 21.1362C12.5367 21.1186 12.5726 21.0989 12.6076 21.0772C14.7043 19.7778 17.2725 19.5349 19.5412 20.5036C20.2956 20.8258 21.25 20.3216 21.25 19.4912V4.83099C21.25 4.50744 21.0999 4.2 20.8321 4.02422C18.3187 2.37433 15.1638 2.31895 12.6076 3.90317C12.5726 3.92489 12.5367 3.94456 12.5 3.96219V21.1362Z" fill="#999999"/>
<path fill-rule="evenodd" clip-rule="evenodd" d="M11.3924 3.90317C11.4274 3.92489 11.4633 3.94456 11.5 3.96219V21.1362C11.4633 21.1186 11.4274 21.0989 11.3924 21.0772C9.29566 19.7778 6.72748 19.5349 4.45882 20.5036C3.70436 20.8258 2.75 20.3216 2.75 19.4912V4.83099C2.75 4.50744 2.90014 4.2 3.16791 4.02422C5.68126 2.37433 8.83617 2.31895 11.3924 3.90317ZM9.28889 6.77485C8.03583 6.4069 6.71348 6.40913 5.46171 6.77709C5.06431 6.89391 4.64746 6.66646 4.53064 6.26906C4.41382 5.87166 4.64128 5.4548 5.03868 5.33798C6.56503 4.8893 8.18093 4.88618 9.7115 5.33561C10.1089 5.45231 10.3365 5.8691 10.2198 6.26654C10.1031 6.66397 9.68632 6.89155 9.28889 6.77485ZM9.28889 9.77485C8.03583 9.4069 6.71348 9.40913 5.46171 9.77709C5.06431 9.89391 4.64746 9.66645 4.53064 9.26906C4.41382 8.87166 4.64128 8.4548 5.03868 8.33798C6.56503 7.8893 8.18093 7.88618 9.7115 8.33561C10.1089 8.45231 10.3365 8.8691 10.2198 9.26654C10.1031 9.66397 9.68632 9.89155 9.28889 9.77485ZM5.46171 12.7771C6.27073 12.5393 7.10885 12.4543 7.93828 12.5231C8.35108 12.5572 8.71344 12.2503 8.74764 11.8375C8.78183 11.4247 8.47491 11.0624 8.06211 11.0282C7.04795 10.9442 6.02444 11.0482 5.03868 11.338C4.64128 11.4548 4.41382 11.8717 4.53064 12.2691C4.64746 12.6665 5.06431 12.8939 5.46171 12.7771Z" fill="#999999"/>
</svg>
