<svg width="24" height="24" viewBox="0 0 24 24" fill="none" xmlns="http://www.w3.org/2000/svg">
<path d="M3.75 17.2149V17.25C3.75 19.4592 5.54086 21.25 7.75 21.25H16.25C18.4591 21.25 20.25 19.4592 20.25 17.25V17.2149C19.6617 17.5552 18.9786 17.75 18.25 17.75C17.3468 17.75 16.5139 17.4504 15.8449 16.9463C14.9283 18.0477 13.5468 18.75 12 18.75C10.4532 18.75 9.07166 18.0477 8.1551 16.9463C7.48613 17.4504 6.65324 17.75 5.75 17.75C5.02143 17.75 4.33835 17.5552 3.75 17.2149Z" fill="#999999"/>
<path d="M21.25 11.75C21.25 10.6454 20.3546 9.75 19.25 9.75H4.75C3.64543 9.75 2.75 10.6454 2.75 11.75V13.75C2.75 15.4069 4.09315 16.75 5.75 16.75C6.83653 16.75 7.78815 16.1724 8.31455 15.3075C8.9219 16.7429 10.3433 17.75 12 17.75C13.6567 17.75 15.0781 16.7429 15.6855 15.3075C16.2118 16.1724 17.1635 16.75 18.25 16.75C19.9069 16.75 21.25 15.4069 21.25 13.75V11.75Z" fill="#999999"/>
<path d="M17.9827 6.75007C17.7261 6.74741 17.485 6.68154 17.2721 6.56866C17.2577 6.62677 17.25 6.68757 17.25 6.75015V8.75015H18.75V6.75015C18.75 6.68693 18.7422 6.62554 18.7274 6.56689C18.5038 6.68578 18.2502 6.75284 17.9827 6.75007Z" fill="#999999"/>
<path d="M16.4275 4.85054C16.2459 5.80371 17.0008 6.73975 17.9827 6.74992C18.9529 6.75996 19.7406 5.85137 19.5769 4.88316C19.433 4.03281 18.5422 3.35734 17.9991 2.75C17.4634 3.34989 16.5861 4.01792 16.4275 4.85054Z" fill="#999999"/>
<path d="M11.9827 6.75007C11.7261 6.74741 11.485 6.68154 11.2721 6.56866C11.2577 6.62677 11.25 6.68757 11.25 6.75015V8.75015H12.75V6.75015C12.75 6.68693 12.7422 6.62554 12.7274 6.56689C12.5038 6.68578 12.2502 6.75284 11.9827 6.75007Z" fill="#999999"/>
<path d="M10.4275 4.85054C10.2459 5.80371 11.0008 6.73975 11.9827 6.74992C12.9529 6.75996 13.7406 5.85137 13.5769 4.88316C13.433 4.03281 12.5422 3.35734 11.9991 2.75C11.4634 3.34989 10.5861 4.01792 10.4275 4.85054Z" fill="#999999"/>
<path d="M5.98268 6.75007C5.7261 6.74741 5.48502 6.68154 5.27211 6.56866C5.25767 6.62677 5.25 6.68757 5.25 6.75015V8.75015H6.75V6.75015C6.75 6.68693 6.74218 6.62554 6.72745 6.56689C6.50381 6.68578 6.25018 6.75284 5.98268 6.75007Z" fill="#999999"/>
<path d="M4.42748 4.85054C4.2459 5.80371 5.00076 6.73975 5.98268 6.74992C6.95293 6.75996 7.74062 5.85137 7.57687 4.88316C7.43305 4.03281 6.54219 3.35734 5.99907 2.75C5.46343 3.34989 4.5861 4.01792 4.42748 4.85054Z" fill="#999999"/>
</svg>
