<svg width="16" height="16" viewBox="0 0 16 16" fill="none" xmlns="http://www.w3.org/2000/svg">
<path d="M7.05744 6.79776C7.08358 6.73243 7.12271 6.6731 7.17251 6.62335L11.5058 2.29004C12.1145 1.68132 13.1014 1.68132 13.7102 2.29004C14.3189 2.89876 14.3189 3.88568 13.7102 4.4944L9.37684 8.8277C9.32711 8.8775 9.26778 8.91663 9.20244 8.94276L6.19032 10.1476C5.97826 10.2324 5.7678 10.022 5.85263 9.8099L7.05744 6.79776Z" stroke="#999999" stroke-linecap="round" stroke-linejoin="round"/>
<path d="M13.1686 5.03591L10.9642 2.83154" stroke="#999999" stroke-linecap="round" stroke-linejoin="round"/>
<path d="M7.50004 1.8335H4.50004C3.02728 1.8335 1.83337 3.0274 1.83337 4.50016V11.5002C1.83337 12.9729 3.02728 14.1668 4.50004 14.1668H11.5C12.9728 14.1668 14.1667 12.9729 14.1667 11.5002V8.50016" stroke="#999999" stroke-linecap="round" stroke-linejoin="round"/>
</svg>
