<svg width="24" height="24" viewBox="0 0 24 24" fill="none" xmlns="http://www.w3.org/2000/svg">
<path fill-rule="evenodd" clip-rule="evenodd" d="M3.66162 8.15852C3.09312 8.52728 2.75 9.15881 2.75 9.83644V17.2498C2.75 19.459 4.54086 21.2498 6.75 21.2498H17.25C19.4591 21.2498 21.25 19.459 21.25 17.2498V9.83644C21.25 9.15881 20.9069 8.52728 20.3384 8.15852L13.6326 3.8088C12.6395 3.16465 11.3605 3.16465 10.3674 3.8088L3.66162 8.15852ZM11.3968 14.285C11.7537 14.5551 12.2467 14.5551 12.6037 14.285L19.2607 9.24727L12.8165 5.06724C12.32 4.74517 11.6805 4.74517 11.1839 5.06724L4.73975 9.24727L11.3968 14.285Z" fill="#999999"/>
</svg>
