<svg width="38" height="38" viewBox="0 0 38 38" fill="none" xmlns="http://www.w3.org/2000/svg">
<path d="M5.04712 17.7581C5.04712 16.4694 6.09178 15.4248 7.38045 15.4248H29.7346C31.0233 15.4248 32.068 16.4694 32.068 17.7581V18.9144C32.068 26.3759 26.0191 32.4248 18.5575 32.4248C11.0959 32.4248 5.04712 26.3759 5.04712 18.9144V17.7581Z" fill="url(#paint0_linear_559_10087)" stroke="url(#paint1_linear_559_10087)" stroke-width="1.5"/>
<path d="M27.227 10.2444C27.3184 9.7742 27.3442 9.28302 27.2953 8.7819C27.1129 6.91248 25.9382 5.37935 24.3433 4.65332C22.9188 5.67383 22.0624 7.40509 22.2448 9.27451C22.3931 10.7959 22.9521 11.9489 24.098 13.1325H29.7345C30.6401 13.1325 31.4848 13.3928 32.1981 13.8425C32.4258 13.6249 32.6336 13.3858 32.8182 13.1282C32.0922 11.5334 30.559 10.3585 28.6896 10.1762C28.1885 10.1273 27.6974 10.1531 27.227 10.2444Z" fill="url(#paint2_linear_559_10087)"/>
<path d="M5.37468 13.5888C5.35146 13.5014 5.32555 13.4145 5.2969 13.3283C4.45546 10.7942 6.0146 8.09372 8.6299 7.55539C9.57148 7.36157 10.4252 6.86867 11.0639 6.15014C12.8377 4.15438 15.956 4.15438 17.7299 6.15014C18.3684 6.86867 19.2222 7.36157 20.1639 7.55539C20.3701 7.59786 20.5698 7.65378 20.7623 7.72201C20.6734 8.27234 20.653 8.8431 20.7096 9.42421C20.7216 9.54694 20.736 9.66787 20.7525 9.78706C18.0849 9.32243 15.2564 10.1697 13.3223 12.4569C13.136 12.6772 12.9471 12.9025 12.7561 13.1325H7.38037C6.66176 13.1325 5.9814 13.2964 5.37468 13.5888Z" fill="url(#paint3_linear_559_10087)"/>
<path d="M14.7892 13.1328C17.2974 10.5339 21.4301 10.5939 24.0934 13.1328H14.7892Z" fill="url(#paint4_linear_559_10087)"/>
<defs>
<linearGradient id="paint0_linear_559_10087" x1="18.5575" y1="14.6748" x2="18.5575" y2="33.1748" gradientUnits="userSpaceOnUse">
<stop stop-color="#FFB800"/>
<stop offset="1" stop-color="#FF9900"/>
</linearGradient>
<linearGradient id="paint1_linear_559_10087" x1="18.5575" y1="14.6748" x2="18.5575" y2="33.1748" gradientUnits="userSpaceOnUse">
<stop stop-color="#FFB800"/>
<stop offset="1" stop-color="#FF9900"/>
</linearGradient>
<linearGradient id="paint2_linear_559_10087" x1="27.5193" y1="4.65332" x2="27.5193" y2="13.8425" gradientUnits="userSpaceOnUse">
<stop stop-color="#FFB800"/>
<stop offset="1" stop-color="#FF9900"/>
</linearGradient>
<linearGradient id="paint3_linear_559_10087" x1="12.9151" y1="4.65332" x2="12.9151" y2="13.5888" gradientUnits="userSpaceOnUse">
<stop stop-color="#FFB800"/>
<stop offset="1" stop-color="#FF9900"/>
</linearGradient>
<linearGradient id="paint4_linear_559_10087" x1="19.4413" y1="11.2061" x2="19.4413" y2="13.1328" gradientUnits="userSpaceOnUse">
<stop stop-color="#FFB800"/>
<stop offset="1" stop-color="#FF9900"/>
</linearGradient>
</defs>
</svg>
