<svg width="35" height="35" viewBox="0 0 35 35" fill="none" xmlns="http://www.w3.org/2000/svg">
<path fill-rule="evenodd" clip-rule="evenodd" d="M4.01038 2.91602C4.61443 2.91602 5.10413 3.40571 5.10413 4.00977V26.6139C5.10413 28.4261 6.57319 29.8952 8.38538 29.8952H30.9895C31.5936 29.8952 32.0833 30.3849 32.0833 30.9889C32.0833 31.593 31.5936 32.0827 30.9895 32.0827H8.38538C5.36507 32.0827 2.91663 29.6343 2.91663 26.6139V4.00977C2.91663 3.40571 3.40632 2.91602 4.01038 2.91602Z" fill="url(#paint0_linear_559_5382)"/>
<path d="M27.3437 26.6139C26.5383 26.6139 25.8854 25.961 25.8854 25.1556V9.8431C25.8854 9.03769 26.5383 8.38477 27.3437 8.38477H29.5312C30.3366 8.38477 30.9895 9.03769 30.9895 9.8431V25.1556C30.9895 25.961 30.3366 26.6139 29.5312 26.6139H27.3437Z" fill="url(#paint1_linear_559_5382)"/>
<path d="M18.5937 26.6152C17.7883 26.6152 17.1354 25.9623 17.1354 25.1569V17.1361C17.1354 16.3306 17.7883 15.6777 18.5937 15.6777H20.7812C21.5866 15.6777 22.2395 16.3306 22.2395 17.1361V25.1569C22.2395 25.9623 21.5866 26.6152 20.7812 26.6152H18.5937Z" fill="url(#paint2_linear_559_5382)"/>
<path d="M9.84371 26.6139C9.0383 26.6139 8.38538 25.961 8.38538 25.1556V5.4681C8.38538 4.66269 9.0383 4.00977 9.84371 4.00977H12.0312C12.8366 4.00977 13.4895 4.66269 13.4895 5.4681V25.1556C13.4895 25.961 12.8366 26.6139 12.0312 26.6139H9.84371Z" fill="url(#paint3_linear_559_5382)"/>
<defs>
<linearGradient id="paint0_linear_559_5382" x1="17.5" y1="2.91602" x2="17.5" y2="32.0827" gradientUnits="userSpaceOnUse">
<stop stop-color="#FFB800"/>
<stop offset="1" stop-color="#FF9900"/>
</linearGradient>
<linearGradient id="paint1_linear_559_5382" x1="28.4375" y1="8.38477" x2="28.4375" y2="26.6139" gradientUnits="userSpaceOnUse">
<stop stop-color="#FFB800"/>
<stop offset="1" stop-color="#FF9900"/>
</linearGradient>
<linearGradient id="paint2_linear_559_5382" x1="19.6875" y1="15.6777" x2="19.6875" y2="26.6152" gradientUnits="userSpaceOnUse">
<stop stop-color="#FFB800"/>
<stop offset="1" stop-color="#FF9900"/>
</linearGradient>
<linearGradient id="paint3_linear_559_5382" x1="10.9375" y1="4.00977" x2="10.9375" y2="26.6139" gradientUnits="userSpaceOnUse">
<stop stop-color="#FFB800"/>
<stop offset="1" stop-color="#FF9900"/>
</linearGradient>
</defs>
</svg>
