<svg width="30" height="30" viewBox="0 0 30 30" fill="none" xmlns="http://www.w3.org/2000/svg">
<g clip-path="url(#clip0_1832_24184)">
<path d="M1.03015 13.9009C1.03015 12.282 2.34242 10.9698 3.96119 10.9698H25.2112C26.83 10.9698 28.1422 12.282 28.1422 13.9009V15C28.1422 22.4867 22.0729 28.556 14.5862 28.556C7.0994 28.556 1.03015 22.4867 1.03015 15V13.9009Z" fill="url(#paint0_linear_1832_24184)"/>
<path d="M22.8275 6.75891C22.9144 6.3119 22.9389 5.84498 22.8924 5.36862C22.719 3.59153 21.6023 2.13413 20.0862 1.44396C18.7321 2.41406 17.918 4.05981 18.0914 5.83689C18.2324 7.28314 18.7638 8.37919 19.8531 9.50431H25.2112C26.072 9.50431 26.875 9.75172 27.5531 10.1793C27.7695 9.97236 27.9671 9.74512 28.1425 9.50022C27.4524 7.98421 25.9949 6.86737 24.2178 6.69405C23.7415 6.64757 23.2746 6.67208 22.8275 6.75891Z" fill="url(#paint1_linear_1832_24184)"/>
<path d="M2.0546 9.93811C2.03252 9.855 2.00789 9.77242 1.98066 9.69044C1.18078 7.28152 2.6629 4.71442 5.14902 4.20268C6.0441 4.01843 6.85567 3.54988 7.46276 2.86684C9.149 0.969658 12.1133 0.969658 13.7995 2.86684C14.4065 3.54988 15.2181 4.01843 16.1133 4.20268C16.3094 4.24305 16.4992 4.29621 16.6822 4.36107C16.5976 4.88422 16.5783 5.42678 16.6321 5.97919C16.6435 6.09586 16.6571 6.21082 16.6728 6.32412C14.137 5.88244 11.4482 6.68784 9.60964 8.86211C9.43258 9.07149 9.253 9.28568 9.07139 9.5043H3.96122C3.2781 9.5043 2.63135 9.6601 2.0546 9.93811Z" fill="url(#paint2_linear_1832_24184)"/>
<path d="M11.004 9.50431C13.3883 7.03381 17.3169 7.09086 19.8486 9.50431H11.004Z" fill="url(#paint3_linear_1832_24184)"/>
</g>
<defs>
<linearGradient id="paint0_linear_1832_24184" x1="14.5862" y1="10.9698" x2="14.5862" y2="28.556" gradientUnits="userSpaceOnUse">
<stop offset="1" stop-color="#FF9900"/>
</linearGradient>
<linearGradient id="paint1_linear_1832_24184" x1="23.1054" y1="1.44396" x2="23.1054" y2="10.1793" gradientUnits="userSpaceOnUse">
<stop offset="1" stop-color="#FF9900"/>
</linearGradient>
<linearGradient id="paint2_linear_1832_24184" x1="9.22257" y1="1.44395" x2="9.22257" y2="9.93811" gradientUnits="userSpaceOnUse">
<stop offset="1" stop-color="#FF9900"/>
</linearGradient>
<linearGradient id="paint3_linear_1832_24184" x1="15.4263" y1="7.67277" x2="15.4263" y2="9.50431" gradientUnits="userSpaceOnUse">
<stop offset="1" stop-color="#FF9900"/>
</linearGradient>
<clipPath id="clip0_1832_24184">
<rect width="28" height="28" fill="white" transform="translate(1 1)"/>
</clipPath>
</defs>
</svg>
