<svg width="38" height="38" viewBox="0 0 38 38" fill="none" xmlns="http://www.w3.org/2000/svg">
<path d="M5.04712 17.7581C5.04712 16.4694 6.09178 15.4248 7.38045 15.4248H29.7346C31.0233 15.4248 32.068 16.4694 32.068 17.7581V18.9144C32.068 26.3759 26.0191 32.4248 18.5575 32.4248C11.0959 32.4248 5.04712 26.3759 5.04712 18.9144V17.7581Z" fill="url(#paint0_linear_1413_231)" stroke="url(#paint1_linear_1413_231)" stroke-width="1.5"/>
<path d="M27.2273 10.2444C27.3187 9.7742 27.3444 9.28302 27.2955 8.7819C27.1132 6.91248 25.9384 5.37935 24.3436 4.65332C22.9191 5.67383 22.0627 7.40509 22.245 9.27451C22.3934 10.7959 22.9524 11.9489 24.0983 13.1325H29.7348C30.6403 13.1325 31.485 13.3928 32.1984 13.8425C32.4261 13.6249 32.6339 13.3858 32.8184 13.1282C32.0924 11.5334 30.5593 10.3585 28.6898 10.1762C28.1888 10.1273 27.6976 10.1531 27.2273 10.2444Z" fill="url(#paint2_linear_1413_231)"/>
<path d="M5.37493 13.5888C5.35171 13.5014 5.32579 13.4145 5.29715 13.3283C4.45571 10.7942 6.01484 8.09372 8.63014 7.55539C9.57173 7.36157 10.4255 6.86867 11.0641 6.15014C12.838 4.15438 15.9563 4.15438 17.7301 6.15014C18.3687 6.86867 19.2225 7.36157 20.1641 7.55539C20.3704 7.59786 20.57 7.65378 20.7626 7.72201C20.6736 8.27234 20.6533 8.8431 20.7099 9.42421C20.7219 9.54694 20.7362 9.66787 20.7527 9.78706C18.0852 9.32243 15.2567 10.1697 13.3225 12.4569C13.1363 12.6772 12.9474 12.9025 12.7563 13.1325H7.38062C6.662 13.1325 5.98165 13.2964 5.37493 13.5888Z" fill="url(#paint3_linear_1413_231)"/>
<path d="M14.7893 13.1328C17.2975 10.5339 21.4303 10.5939 24.0935 13.1328H14.7893Z" fill="url(#paint4_linear_1413_231)"/>
<defs>
<linearGradient id="paint0_linear_1413_231" x1="18.5575" y1="14.6748" x2="18.5575" y2="33.1748" gradientUnits="userSpaceOnUse">
<stop offset="1" stop-color="#FF9900"/>
</linearGradient>
<linearGradient id="paint1_linear_1413_231" x1="18.5575" y1="14.6748" x2="18.5575" y2="33.1748" gradientUnits="userSpaceOnUse">
<stop offset="1" stop-color="#FF9900"/>
</linearGradient>
<linearGradient id="paint2_linear_1413_231" x1="27.5196" y1="4.65332" x2="27.5196" y2="13.8425" gradientUnits="userSpaceOnUse">
<stop offset="1" stop-color="#FF9900"/>
</linearGradient>
<linearGradient id="paint3_linear_1413_231" x1="12.9154" y1="4.65332" x2="12.9154" y2="13.5888" gradientUnits="userSpaceOnUse">
<stop offset="1" stop-color="#FF9900"/>
</linearGradient>
<linearGradient id="paint4_linear_1413_231" x1="19.4414" y1="11.2061" x2="19.4414" y2="13.1328" gradientUnits="userSpaceOnUse">
<stop offset="1" stop-color="#FF9900"/>
</linearGradient>
</defs>
</svg>
