<svg width="24" height="24" viewBox="0 0 24 24" fill="none" xmlns="http://www.w3.org/2000/svg">
<path d="M10.25 16.25C13.0114 16.25 15.25 14.0114 15.25 11.25C15.25 8.48858 13.0114 6.25 10.25 6.25C7.48858 6.25 5.25 8.48858 5.25 11.25C5.25 14.0114 7.48858 16.25 10.25 16.25Z" fill="#999999"/>
<path fill-rule="evenodd" clip-rule="evenodd" d="M13 2.75C13 2.33579 13.3358 2 13.75 2H18.25C18.9404 2 19.5 2.55964 19.5 3.25V7.75C19.5 8.16421 19.1642 8.5 18.75 8.5C18.3358 8.5 18 8.16421 18 7.75V3.5H13.75C13.3358 3.5 13 3.16421 13 2.75Z" fill="#999999"/>
<path fill-rule="evenodd" clip-rule="evenodd" d="M19.1304 2.36957C19.4232 2.66247 19.4232 3.13734 19.1304 3.43023L14.3155 8.2451C14.0226 8.538 13.5477 8.538 13.2548 8.2451C12.9619 7.95221 12.9619 7.47734 13.2548 7.18444L18.0697 2.36957C18.3626 2.07668 18.8375 2.07668 19.1304 2.36957Z" fill="#999999"/>
<path fill-rule="evenodd" clip-rule="evenodd" d="M10.25 15.5C10.6642 15.5 11 15.8358 11 16.25V21.25C11 21.6642 10.6642 22 10.25 22C9.83579 22 9.5 21.6642 9.5 21.25V16.25C9.5 15.8358 9.83579 15.5 10.25 15.5Z" fill="#999999"/>
<path fill-rule="evenodd" clip-rule="evenodd" d="M7 19C7 18.5858 7.33579 18.25 7.75 18.25H12.75C13.1642 18.25 13.5 18.5858 13.5 19C13.5 19.4142 13.1642 19.75 12.75 19.75H7.75C7.33579 19.75 7 19.4142 7 19Z" fill="#999999"/>
</svg>
