<svg width="24" height="24" viewBox="0 0 24 24" fill="none" xmlns="http://www.w3.org/2000/svg">
<path d="M17.6676 12.6304C17.3286 13.0795 16.8314 13.4104 16.2417 13.5322L15.8964 13.6036C15.7879 13.626 15.6938 13.6931 15.6374 13.7885L15.4649 14.0796C14.839 15.1363 13.515 15.5479 12.4004 15.0321L12.1653 14.9234C12.0604 14.8749 11.9396 14.8749 11.8347 14.9234L11.6062 15.0291C10.4869 15.547 9.1572 15.1296 8.53472 14.0648L8.37429 13.7904C8.31789 13.6939 8.22313 13.626 8.11366 13.6035L7.76156 13.5312C7.17185 13.4101 6.67447 13.0802 6.33489 12.6317L2.81894 17.653C2.62731 17.9267 2.86223 18.2954 3.19124 18.2374L5.73924 17.7881C6.14717 17.7162 6.53616 17.9886 6.60808 18.3965L7.05737 20.9445C7.11538 21.2735 7.54223 21.3682 7.73385 21.0945L12.0017 14.9994L16.2696 21.0945C16.4612 21.3682 16.888 21.2735 16.946 20.9445L17.3953 18.3965C17.4673 17.9886 17.8563 17.7162 18.2642 17.7881L20.8122 18.2374C21.1412 18.2954 21.3761 17.9267 21.1845 17.653L17.6676 12.6304Z" fill="#999999"/>
<path fill-rule="evenodd" clip-rule="evenodd" d="M9.39802 13.5602C9.76044 14.1801 10.5346 14.4232 11.1863 14.1216L11.4148 14.0159C11.786 13.8442 12.214 13.8442 12.5852 14.0159L12.8203 14.1247C13.4692 14.4249 14.2401 14.1853 14.6045 13.5701L14.777 13.279C14.9769 12.9414 15.3098 12.7038 15.694 12.6244L16.0393 12.553C16.7462 12.4069 17.2246 11.7452 17.1416 11.0282L17.109 10.7464C17.0645 10.3608 17.1827 9.97407 17.4353 9.67936L17.6645 9.41198C18.1134 8.88832 18.1116 8.11509 17.6605 7.59342L17.4398 7.33825C17.1845 7.04303 17.0646 6.65426 17.1095 6.26653L17.1416 5.9884C17.2246 5.27134 16.7462 4.60964 16.0393 4.46355L15.6967 4.39274C15.311 4.31302 14.977 4.07376 14.7773 3.73417L14.603 3.43762C14.2398 2.81964 13.467 2.57802 12.8164 2.87903L12.5852 2.98602C12.214 3.15778 11.786 3.15778 11.4148 2.98602L11.1901 2.88207C10.5368 2.57978 9.76078 2.82484 9.39953 3.44751L9.2372 3.72733C9.03782 4.071 8.70123 4.31322 8.31203 4.39312L7.96266 4.46485C7.25489 4.61015 6.77555 5.27231 6.85855 5.99007L6.89053 6.26653C6.93537 6.65426 6.81555 7.04303 6.56022 7.33825L6.33953 7.59342C5.88836 8.11509 5.88664 8.88832 6.3355 9.41198L6.56468 9.67936C6.81729 9.97407 6.93554 10.3608 6.89095 10.7464L6.85855 11.0265C6.77555 11.7443 7.25489 12.4064 7.96266 12.5517L8.31476 12.624C8.70237 12.7036 9.03788 12.9442 9.23759 13.2858L9.39802 13.5602ZM12 10.5C13.1046 10.5 14 9.60457 14 8.5C14 7.39543 13.1046 6.5 12 6.5C10.8954 6.5 10 7.39543 10 8.5C10 9.60457 10.8954 10.5 12 10.5Z" fill="#999999"/>
</svg>
