<svg width="24" height="24" viewBox="0 0 24 24" fill="none" xmlns="http://www.w3.org/2000/svg">
<path d="M11 2.75C9.5135 2.75 8.27952 3.83114 8.04148 5.25H11C11.4142 5.25 11.75 5.58579 11.75 6C11.75 6.41421 11.4142 6.75 11 6.75H8V9.25H11C11.4142 9.25 11.75 9.58579 11.75 10C11.75 10.4142 11.4142 10.75 11 10.75H8V13.25H11C11.4142 13.25 11.75 13.5858 11.75 14C11.75 14.4142 11.4142 14.75 11 14.75H8V17.25H11C11.4142 17.25 11.75 17.5858 11.75 18C11.75 18.4142 11.4142 18.75 11 18.75H8.04148C8.27952 20.1689 9.5135 21.25 11 21.25H13C14.6569 21.25 16 19.9069 16 18.25V5.75C16 4.09315 14.6569 2.75 13 2.75H11Z" fill="#999999"/>
</svg>
