<svg width="25" height="24" viewBox="0 0 25 24" fill="none" xmlns="http://www.w3.org/2000/svg">
<path fill-rule="evenodd" clip-rule="evenodd" d="M7.25 5.5C5.04086 5.5 3.25 7.29086 3.25 9.5V14.5C3.25 16.7091 5.04086 18.5 7.25 18.5H17.75C19.9591 18.5 21.75 16.7091 21.75 14.5V9.5C21.75 7.29086 19.9591 5.5 17.75 5.5H7.25ZM5.75 9C5.75 8.58579 6.08579 8.25 6.5 8.25H6.51C6.92421 8.25 7.26 8.58579 7.26 9C7.26 9.41421 6.92421 9.75 6.51 9.75H6.5C6.08579 9.75 5.75 9.41421 5.75 9ZM8.75 9C8.75 8.58579 9.08579 8.25 9.5 8.25H9.51C9.92421 8.25 10.26 8.58579 10.26 9C10.26 9.41421 9.92421 9.75 9.51 9.75H9.5C9.08579 9.75 8.75 9.41421 8.75 9ZM12.5 8.25C12.0858 8.25 11.75 8.58579 11.75 9C11.75 9.41421 12.0858 9.75 12.5 9.75H12.51C12.9242 9.75 13.26 9.41421 13.26 9C13.26 8.58579 12.9242 8.25 12.51 8.25H12.5ZM14.75 9C14.75 8.58579 15.0858 8.25 15.5 8.25H15.51C15.9242 8.25 16.26 8.58579 16.26 9C16.26 9.41421 15.9242 9.75 15.51 9.75H15.5C15.0858 9.75 14.75 9.41421 14.75 9ZM18.5 8.25C18.0858 8.25 17.75 8.58579 17.75 9C17.75 9.41421 18.0858 9.75 18.5 9.75H18.51C18.9242 9.75 19.26 9.41421 19.26 9C19.26 8.58579 18.9242 8.25 18.51 8.25H18.5ZM5.75 12C5.75 11.5858 6.08579 11.25 6.5 11.25H6.51C6.92421 11.25 7.26 11.5858 7.26 12C7.26 12.4142 6.92421 12.75 6.51 12.75H6.5C6.08579 12.75 5.75 12.4142 5.75 12ZM9.5 11.25C9.08579 11.25 8.75 11.5858 8.75 12C8.75 12.4142 9.08579 12.75 9.5 12.75H9.51C9.92421 12.75 10.26 12.4142 10.26 12C10.26 11.5858 9.92421 11.25 9.51 11.25H9.5ZM11.75 12C11.75 11.5858 12.0858 11.25 12.5 11.25H12.51C12.9242 11.25 13.26 11.5858 13.26 12C13.26 12.4142 12.9242 12.75 12.51 12.75H12.5C12.0858 12.75 11.75 12.4142 11.75 12ZM15.5 11.25C15.0858 11.25 14.75 11.5858 14.75 12C14.75 12.4142 15.0858 12.75 15.5 12.75H15.51C15.9242 12.75 16.26 12.4142 16.26 12C16.26 11.5858 15.9242 11.25 15.51 11.25H15.5ZM17.75 12C17.75 11.5858 18.0858 11.25 18.5 11.25H18.51C18.9242 11.25 19.26 11.5858 19.26 12C19.26 12.4142 18.9242 12.75 18.51 12.75H18.5C18.0858 12.75 17.75 12.4142 17.75 12ZM6.5 14.25C6.08579 14.25 5.75 14.5858 5.75 15C5.75 15.4142 6.08579 15.75 6.5 15.75H6.51C6.92421 15.75 7.26 15.4142 7.26 15C7.26 14.5858 6.92421 14.25 6.51 14.25H6.5ZM8.75 15C8.75 14.5858 9.08579 14.25 9.5 14.25H15.5C15.9142 14.25 16.25 14.5858 16.25 15C16.25 15.4142 15.9142 15.75 15.5 15.75H9.5C9.08579 15.75 8.75 15.4142 8.75 15ZM18.5 14.25C18.0858 14.25 17.75 14.5858 17.75 15C17.75 15.4142 18.0858 15.75 18.5 15.75H18.51C18.9242 15.75 19.26 15.4142 19.26 15C19.26 14.5858 18.9242 14.25 18.51 14.25H18.5Z" fill="#999999"/>
</svg>
