<svg width="17" height="17" viewBox="0 0 17 17" fill="none" xmlns="http://www.w3.org/2000/svg">
<g clip-path="url(#clip0_662_7260)">
<path d="M16.5578 14.4542L9.89178 7.78813L2.10365 0H1.49501L1.37073 0.315795C1.04271 1.14933 0.902564 2.00185 0.965484 2.78109C1.0372 3.66934 1.37465 4.43836 1.94139 5.00511L8.02121 11.0849L8.82313 10.283L14.4439 16.5681C15.0031 17.1273 15.9655 17.1605 16.5578 16.5681C17.1406 15.9853 17.1406 15.037 16.5578 14.4542Z" fill="#D2D2D2"/>
<path d="M5.20391 9.67676L0.442213 14.4385C-0.140568 15.0212 -0.140568 15.9695 0.442213 16.5523C0.995842 17.106 1.95359 17.1548 2.55609 16.5523L7.31782 11.7906L5.20391 9.67676Z" fill="#D2D2D2"/>
<path d="M16.2779 2.83076L13.5768 5.53183L12.8721 4.82719L15.5732 2.12609L14.8686 1.42145L12.1675 4.12252L11.4629 3.41789L14.164 0.716811L13.4594 0.012207L9.9362 3.53539C9.50519 3.9664 9.24783 4.53869 9.21144 5.14691C9.20224 5.301 9.16731 5.45258 9.10938 5.59674L11.398 7.8854C11.5422 7.8274 11.6938 7.7925 11.8479 7.7833C12.4561 7.74701 13.0284 7.48959 13.4594 7.05858L16.9826 3.53543L16.2779 2.83076Z" fill="#D2D2D2"/>
</g>
<defs>
<clipPath id="clip0_662_7260">
<rect width="17" height="17" fill="white"/>
</clipPath>
</defs>
</svg>
