<svg width="24" height="24" viewBox="0 0 24 24" fill="none" xmlns="http://www.w3.org/2000/svg">
<path fill-rule="evenodd" clip-rule="evenodd" d="M19.6409 8.48079L13.7999 4.1C12.7332 3.3 11.2666 3.3 10.1999 4.1L4.35884 8.48079C3.38546 9.21083 2.94942 10.4565 3.25499 11.6342L5.167 19.0034C5.51023 20.3263 6.70417 21.25 8.07085 21.25H15.9289C17.2956 21.25 18.4896 20.3263 18.8328 19.0034L20.7448 11.6342C21.0504 10.4565 20.6143 9.21083 19.6409 8.48079ZM10.75 15.3V13.25H8.7C8.58954 13.25 8.5 13.1605 8.5 13.05V10.95C8.5 10.8395 8.58954 10.75 8.7 10.75H10.75V8.7C10.75 8.58954 10.8395 8.5 10.95 8.5H13.05C13.1605 8.5 13.25 8.58954 13.25 8.7V10.75H15.3C15.4105 10.75 15.5 10.8395 15.5 10.95V13.05C15.5 13.1605 15.4105 13.25 15.3 13.25H13.25V15.3C13.25 15.4105 13.1605 15.5 13.05 15.5H10.95C10.8395 15.5 10.75 15.4105 10.75 15.3Z" fill="#999999"/>
</svg>
