<svg width="41" height="40" viewBox="0 0 41 40" fill="none" xmlns="http://www.w3.org/2000/svg">
<path d="M20.9423 31.6663C27.3856 31.6663 32.609 26.443 32.609 19.9997C32.609 13.5564 27.3856 8.33301 20.9423 8.33301C14.499 8.33301 9.27563 13.5564 9.27563 19.9997C9.27563 26.443 14.499 31.6663 20.9423 31.6663Z" stroke="#333333" stroke-width="1.5" stroke-linejoin="round"/>
<path d="M12.9833 6.19382C12.2209 5.21361 11.0302 4.58301 9.6923 4.58301C7.39112 4.58301 5.52563 6.44849 5.52563 8.74967C5.52563 10.1061 6.17378 11.3111 7.17725 12.072" stroke="#333333" stroke-width="1.5" stroke-linecap="round" stroke-linejoin="round"/>
<path d="M28.8975 6.19884C29.6596 5.21577 30.852 4.58301 32.1923 4.58301C34.4935 4.58301 36.359 6.44849 36.359 8.74967C36.359 10.1021 35.7146 11.3041 34.7161 12.0653" stroke="#333333" stroke-width="1.5" stroke-linecap="round" stroke-linejoin="round"/>
<path d="M20.9424 13.333V19.9997L15.9424 24.9997" stroke="#333333" stroke-width="1.5" stroke-linecap="round" stroke-linejoin="round"/>
</svg>
