<svg width="24" height="24" viewBox="0 0 24 24" fill="none" xmlns="http://www.w3.org/2000/svg">
<path d="M20.25 10.7498C20.8023 10.7498 21.2566 10.2998 21.1884 9.75183C20.7378 6.13151 17.8683 3.26202 14.248 2.81149C13.7 2.74329 13.25 3.19756 13.25 3.74984V9.74984C13.25 10.3021 13.6977 10.7498 14.25 10.7498H20.25Z" stroke="#333333" stroke-width="1.5" stroke-linecap="round"/>
<path d="M10.75 21.2498C14.8303 21.2498 18.1971 18.1951 18.6884 14.2478C18.7566 13.6998 18.3023 13.2498 17.75 13.2498H11.75C11.1977 13.2498 10.75 12.8021 10.75 12.2498V6.24984C10.75 5.69756 10.3 5.24329 9.75199 5.31149C5.80471 5.80271 2.75 9.16954 2.75 13.2498C2.75 17.6681 6.33172 21.2498 10.75 21.2498Z" stroke="#333333" stroke-width="1.5" stroke-linecap="round"/>
</svg>
