<svg width="20" height="20" viewBox="0 0 20 20" fill="none" xmlns="http://www.w3.org/2000/svg">
<path d="M19.2502 12.8162C19.2502 12.4649 19.0659 12.1394 18.7647 11.9587L15.0494 9.7295C14.5992 9.4594 14.0168 9.5835 13.7157 10.0136L12.6997 11.465C12.3956 11.8995 11.8027 12.0241 11.3724 11.7143C10.1844 10.8593 9.141 9.8159 8.2859 8.6279C7.97611 8.1975 8.1008 7.60462 8.5352 7.30054L9.9866 6.2845C10.4168 5.98342 10.5408 5.40097 10.2707 4.95077L8.0415 1.2355C7.86079 0.9343 7.53528 0.75 7.18402 0.75H3.75021C2.09336 0.75 0.724642 2.10182 0.990142 3.73727C2.26041 11.5617 8.4385 17.7398 16.263 19.0101C17.8984 19.2756 19.2502 17.9069 19.2502 16.25V12.8162Z" fill="#999999"/>
</svg>
