<svg width="18" height="17" viewBox="0 0 18 17" fill="none" xmlns="http://www.w3.org/2000/svg">
<path d="M16.1999 7.64998H9.90002V1.74995C9.90002 1.27482 9.49061 0.9 8.99993 0.9C8.50937 0.9 8.09998 1.27483 8.09998 1.74995V7.64998H1.79995C1.3094 7.64998 0.9 8.02481 0.9 8.49993C0.9 8.97518 1.30938 9.35002 1.79995 9.35002H8.09998V15.2499C8.09998 15.7252 8.50936 16.1 8.99993 16.1C9.49063 16.1 9.90002 15.7252 9.90002 15.2499V9.35002H16.1999C16.6906 9.35002 17.1 8.97519 17.1 8.49993C17.1 8.0248 16.6906 7.64998 16.1999 7.64998Z" fill="#999999" stroke="#999999" stroke-width="0.2"/>
</svg>
