<svg width="30" height="30" viewBox="0 0 30 30" fill="none" xmlns="http://www.w3.org/2000/svg">
<g clip-path="url(#clip0_1832_25433)">
<path d="M28.9439 28.944H5.56029C3.06073 28.944 1.03442 26.9177 1.03442 24.4181V1.03448" stroke="#333333" stroke-width="1.5" stroke-linecap="round"/>
<path d="M25.1723 24.4181C24.3391 24.4181 23.6637 23.7427 23.6637 22.9095V7.06895C23.6637 6.23577 24.3391 5.56033 25.1723 5.56033H27.4352C28.2685 5.56033 28.9439 6.23577 28.9439 7.06895V22.9095C28.9439 23.7427 28.2685 24.4181 27.4352 24.4181H25.1723Z" stroke="#333333" stroke-width="1.5" stroke-linecap="round"/>
<path d="M16.1207 24.4181C15.2875 24.4181 14.6121 23.7427 14.6121 22.9095V14.6121C14.6121 13.7789 15.2875 13.1035 16.1207 13.1035H18.3836C19.2168 13.1035 19.8922 13.7789 19.8922 14.6121V22.9095C19.8922 23.7427 19.2168 24.4181 18.3836 24.4181H16.1207Z" stroke="#333333" stroke-width="1.5" stroke-linecap="round"/>
<path d="M7.06892 24.4181C6.23574 24.4181 5.5603 23.7427 5.5603 22.9095V2.54311C5.5603 1.70992 6.23574 1.03448 7.06892 1.03448H9.33185C10.165 1.03448 10.8405 1.70992 10.8405 2.54311V22.9095C10.8405 23.7427 10.165 24.4181 9.33185 24.4181H7.06892Z" stroke="#333333" stroke-width="1.5" stroke-linecap="round"/>
</g>
<defs>
<clipPath id="clip0_1832_25433">
<rect width="30" height="30" fill="white"/>
</clipPath>
</defs>
</svg>
