<svg width="35" height="36" viewBox="0 0 35 36" fill="none" xmlns="http://www.w3.org/2000/svg">
<path d="M30.9895 31.4894H8.38538C5.96914 31.4894 4.01038 29.5307 4.01038 27.1144V4.51025" stroke="#333333" stroke-width="1.5" stroke-linecap="round"/>
<path d="M27.3437 27.1144C26.5383 27.1144 25.8854 26.4615 25.8854 25.6561V10.3436C25.8854 9.53818 26.5383 8.88525 27.3437 8.88525H29.5312C30.3366 8.88525 30.9895 9.53818 30.9895 10.3436V25.6561C30.9895 26.4615 30.3366 27.1144 29.5312 27.1144H27.3437Z" stroke="#333333" stroke-width="1.5" stroke-linecap="round"/>
<path d="M18.5937 27.1147C17.7883 27.1147 17.1354 26.4619 17.1354 25.6564V17.6356C17.1354 16.8301 17.7883 16.1772 18.5937 16.1772H20.7812C21.5866 16.1772 22.2395 16.8301 22.2395 17.6356V25.6564C22.2395 26.4619 21.5866 27.1147 20.7812 27.1147H18.5937Z" stroke="#333333" stroke-width="1.5" stroke-linecap="round"/>
<path d="M9.84371 27.1144C9.0383 27.1144 8.38538 26.4615 8.38538 25.6561V5.96859C8.38538 5.16318 9.0383 4.51025 9.84371 4.51025H12.0312C12.8366 4.51025 13.4895 5.16318 13.4895 5.96859V25.6561C13.4895 26.4615 12.8366 27.1144 12.0312 27.1144H9.84371Z" stroke="#333333" stroke-width="1.5" stroke-linecap="round"/>
</svg>
