<svg width="37" height="36" viewBox="0 0 37 36" fill="none" xmlns="http://www.w3.org/2000/svg">
<path d="M4.91528 16.9008C4.91528 15.282 6.22755 13.9697 7.84632 13.9697H29.0963C30.7151 13.9697 32.0274 15.282 32.0274 16.9008V17.9999C32.0274 25.4866 25.9581 31.5559 18.4713 31.5559C10.9845 31.5559 4.91528 25.4866 4.91528 17.9999V16.9008Z" stroke="#333333" stroke-width="1.5" stroke-linecap="round"/>
<path d="M13.6482 13.9699C13.9762 13.5689 14.2993 13.1811 14.6144 12.8085C16.9966 9.99128 21.2273 9.99527 23.8514 12.6194C24.266 13.034 24.6151 13.4887 24.8981 13.9699" stroke="#333333" stroke-width="1.5" stroke-linecap="round"/>
<path d="M30.0243 14.1201C30.8253 13.7715 31.5192 13.2102 32.0276 12.5006C31.3375 10.9846 29.88 9.86775 28.103 9.69442C27.6267 9.64795 27.1598 9.67245 26.7126 9.75928C26.7995 9.31227 26.824 8.84536 26.7775 8.36899C26.6042 6.5919 25.4875 5.13451 23.9714 4.44434C22.6172 5.41444 21.8031 7.06018 21.9765 8.83727C22.1223 10.3327 22.686 11.4542 23.8519 12.6201C24.4541 13.2224 25.0446 13.6639 25.6808 13.9702" stroke="#333333" stroke-width="1.5" stroke-linecap="round"/>
<path d="M21.9567 8.18216C21.4215 7.70645 20.7566 7.35915 19.9983 7.20306C19.1032 7.01881 18.2916 6.55026 17.6845 5.86722C15.9983 3.97004 13.034 3.97004 11.3478 5.86722C10.7407 6.55026 9.92911 7.01881 9.03403 7.20306C6.54791 7.7148 5.06579 10.2819 5.86567 12.6908C6.06968 13.3052 6.12917 13.9547 6.04413 14.5895" stroke="#333333" stroke-width="1.5" stroke-linecap="round"/>
</svg>
