<svg width="30" height="30" viewBox="0 0 30 30" fill="none" xmlns="http://www.w3.org/2000/svg">
<g clip-path="url(#clip0_1832_23420)">
<g clip-path="url(#clip1_1832_23420)">
<path d="M1.03015 13.9009C1.03015 12.282 2.34242 10.9698 3.96119 10.9698H25.2112C26.83 10.9698 28.1422 12.282 28.1422 13.9009V15C28.1422 22.4867 22.0729 28.556 14.5862 28.556C7.0994 28.556 1.03015 22.4867 1.03015 15V13.9009Z" stroke="#333333" stroke-width="1.5" stroke-linecap="round"/>
<path d="M9.76318 10.9698C10.0912 10.5688 10.4143 10.181 10.7293 9.80837C13.1116 6.99119 17.3423 6.99518 19.9664 9.61933C20.381 10.0339 20.7301 10.4886 21.0131 10.9698" stroke="#333333" stroke-width="1.5" stroke-linecap="round"/>
<path d="M26.1391 11.1198C26.9402 10.7711 27.6341 10.2098 28.1425 9.50023C27.4524 7.98422 25.9949 6.86738 24.2178 6.69405C23.7415 6.64758 23.2746 6.67209 22.8275 6.75892C22.9144 6.31191 22.9389 5.84499 22.8924 5.36862C22.719 3.59154 21.6023 2.13414 20.0862 1.44397C18.7321 2.41407 17.918 4.05982 18.0914 5.8369C18.2372 7.33237 18.8008 8.4538 19.9668 9.61972C20.569 10.222 21.1594 10.6636 21.7956 10.9698" stroke="#333333" stroke-width="1.5" stroke-linecap="round"/>
<path d="M18.0717 5.18179C17.5365 4.70608 16.8715 4.35878 16.1133 4.20269C15.2181 4.01845 14.4065 3.54989 13.7995 2.86686C12.1133 0.969673 9.149 0.969673 7.46276 2.86686C6.85567 3.54989 6.0441 4.01845 5.14902 4.20269C2.6629 4.71444 1.18078 7.28154 1.98066 9.69045C2.18467 10.3048 2.24416 10.9543 2.15912 11.5891" stroke="#333333" stroke-width="1.5" stroke-linecap="round"/>
</g>
</g>
<defs>
<clipPath id="clip0_1832_23420">
<rect width="30" height="30" fill="white"/>
</clipPath>
<clipPath id="clip1_1832_23420">
<rect width="30" height="30" fill="white"/>
</clipPath>
</defs>
</svg>
