<svg width="24" height="24" viewBox="0 0 24 24" fill="none" xmlns="http://www.w3.org/2000/svg">
<path d="M2.75 11.25C2.75 10.1454 3.64543 9.25 4.75 9.25H19.25C20.3546 9.25 21.25 10.1454 21.25 11.25V12C21.25 17.1086 17.1086 21.25 12 21.25C6.89137 21.25 2.75 17.1086 2.75 12V11.25Z" fill="#999999"/>
<path d="M17.6235 6.37667C17.6828 6.07165 17.6995 5.75305 17.6678 5.428C17.5495 4.2154 16.7875 3.22094 15.753 2.75C14.829 3.41195 14.2735 4.53493 14.3918 5.74753C14.488 6.73438 14.8506 7.48227 15.5939 8.25H19.25C19.8374 8.25 20.3853 8.41882 20.848 8.71057C20.9957 8.56938 21.1305 8.41432 21.2502 8.24721C20.7793 7.21276 19.7848 6.45068 18.5722 6.33241C18.2472 6.3007 17.9286 6.31742 17.6235 6.37667Z" fill="#999999"/>
<path d="M3.44901 8.54601C3.43395 8.4893 3.41714 8.43295 3.39856 8.37701C2.85276 6.73328 3.86409 4.98161 5.5605 4.63242C6.17126 4.5067 6.72504 4.18698 7.13929 3.72091C8.2899 2.42636 10.3126 2.42636 11.4632 3.72091C11.8774 4.18698 12.4312 4.5067 13.042 4.63242C13.1758 4.65997 13.3053 4.69624 13.4302 4.7405C13.3725 5.09747 13.3593 5.46769 13.396 5.84463C13.4038 5.92424 13.4131 6.00268 13.4238 6.07999C11.6935 5.77861 9.85879 6.32818 8.60422 7.8118C8.4834 7.95467 8.36086 8.10082 8.23694 8.25H4.75C4.28387 8.25 3.84256 8.35631 3.44901 8.54601Z" fill="#999999"/>
<path d="M9.55566 8.24976C11.1826 6.56401 13.8633 6.60294 15.5908 8.24976H9.55566Z" fill="#999999"/>
</svg>
