<svg width="24" height="21" viewBox="0 0 24 21" fill="none" xmlns="http://www.w3.org/2000/svg">
<path d="M23.6075 19.2197L17.3502 13.7753C18.7221 12.3441 19.5501 10.5051 19.5501 8.5C19.5501 3.95087 15.2965 0.25 10.0681 0.25C4.8396 0.25 0.58606 3.95087 0.58606 8.5C0.58606 13.0491 4.8396 16.75 10.0681 16.75C12.3726 16.75 14.4862 16.0296 16.1312 14.836L22.3886 20.2804C22.5569 20.4269 22.7776 20.5002 22.9981 20.5002C23.2185 20.5002 23.4392 20.4269 23.6075 20.2804C23.9443 19.9874 23.9443 19.5126 23.6075 19.2197ZM2.31006 8.5C2.31006 4.77812 5.78995 1.75 10.0681 1.75C14.3462 1.75 17.8261 4.77812 17.8261 8.5C17.8261 12.2219 14.3462 15.25 10.0681 15.25C5.78995 15.25 2.31006 12.2219 2.31006 8.5Z" fill="#999999"/>
</svg>
