<svg width="30" height="30" viewBox="0 0 30 30" fill="none" xmlns="http://www.w3.org/2000/svg">
<path d="M21.815 5.37575L21.8154 5.37598C22.5894 5.81826 22.858 6.80844 22.4113 7.59019C21.7697 8.70998 21.6208 9.8987 22.1743 10.8551C22.7281 11.8121 23.8335 12.2748 25.125 12.2748C26.0183 12.2748 26.7522 13.0098 26.7625 13.9038V16.0998C26.7625 16.9955 26.0259 17.7248 25.1375 17.7248C23.8465 17.7248 22.74 18.1873 22.1877 19.1456C21.6355 20.1039 21.7897 21.2934 22.4381 22.4125C22.8812 23.1794 22.6153 24.1808 21.8404 24.6236L21.84 24.6238L19.6775 25.8613L19.6774 25.8613L19.6665 25.8677C19.0505 26.2343 18.2319 26.0256 17.8466 25.3823L17.7116 25.149L17.7114 25.1487C17.0628 24.0296 16.1073 23.3029 15.0016 23.3029C13.8951 23.3029 12.9426 24.0304 12.3001 25.1504C12.2999 25.1509 12.2996 25.1513 12.2993 25.1518L12.1659 25.3823C11.7806 26.0256 10.962 26.2343 10.346 25.8677L10.346 25.8677L10.335 25.8613L8.17251 24.6238L8.1721 24.6236C7.39866 24.1817 7.12985 23.1925 7.57524 22.411C8.22291 21.2923 8.37678 20.1034 7.82482 19.1456C7.27255 18.1873 6.16604 17.7248 4.875 17.7248C3.97928 17.7248 3.25 16.9882 3.25 16.0998V13.8998C3.25 13.0041 3.98664 12.2748 4.875 12.2748C6.16593 12.2748 7.27204 11.8124 7.82443 10.8562C8.3769 9.89983 8.22314 8.7135 7.57473 7.60015C7.12912 6.81713 7.40058 5.81685 8.1721 5.37598L8.17251 5.37575L10.335 4.13825L10.3351 4.13834L10.346 4.13185C10.9679 3.76186 11.7783 3.98084 12.1358 4.60851L12.1358 4.60852L12.1384 4.61308L12.2759 4.85058L12.2761 4.8509C12.9247 5.96996 13.8802 6.69667 14.9859 6.69667C16.0924 6.69667 17.0449 5.96918 17.6874 4.84915C17.6877 4.8487 17.6879 4.84825 17.6882 4.84779L17.8216 4.61736C18.2068 3.97397 19.0255 3.76533 19.6415 4.13185L19.6415 4.13195L19.6525 4.13825L21.815 5.37575ZM10.1875 14.9998C10.1875 17.6515 12.3483 19.8123 15 19.8123C17.6517 19.8123 19.8125 17.6515 19.8125 14.9998C19.8125 12.3481 17.6517 10.1873 15 10.1873C12.3483 10.1873 10.1875 12.3481 10.1875 14.9998Z" stroke="#999999" stroke-width="1.5"/>
</svg>
