<svg width="24" height="24" viewBox="0 0 24 24" fill="none" xmlns="http://www.w3.org/2000/svg">
<path d="M12 12H4.14414C3.98873 10.6297 3.99581 9.21675 4.00302 7.77735C4.00455 7.47282 4.00608 7.16695 4.00608 6.86021C4.00608 6.00223 4.54535 5.23843 5.34962 4.95725L11.3451 2.86123C11.5572 2.78708 11.7786 2.75 12 2.75V12Z" fill="#999999"/>
<path d="M12 12V21.25C12.0381 21.25 12.0762 21.2454 12.1134 21.2363C14.3774 20.6794 16.2506 19.4503 17.7331 17.5489C19.0833 15.8173 19.6345 13.952 19.8559 12H12Z" fill="#999999"/>
<path fill-rule="evenodd" clip-rule="evenodd" d="M12.407 3.56921C12.143 3.47693 11.8561 3.47693 11.5922 3.56921L5.59673 5.66523C5.09626 5.8402 4.75567 6.31799 4.75567 6.86021C4.75567 7.15798 4.75449 7.45254 4.75332 7.74395C4.73908 11.2807 4.72671 14.3545 6.85791 17.0877C8.22618 18.8426 9.93457 19.969 11.9996 20.4916C14.0646 19.969 15.773 18.8426 17.1413 17.0877C19.2725 14.3544 19.2601 11.2807 19.2459 7.74395C19.2447 7.45254 19.2435 7.15798 19.2435 6.86021C19.2435 6.31799 18.9029 5.8402 18.4025 5.66523L12.407 3.56921ZM11.0971 2.15325C11.6816 1.94892 12.3176 1.94892 12.902 2.15325L18.8975 4.24927C20.0056 4.63666 20.7435 5.68647 20.7435 6.86021C20.7435 7.172 20.7454 7.48544 20.7473 7.80008C20.7681 11.2517 20.7898 14.8478 18.3242 18.0101C16.7419 20.0394 14.7255 21.366 12.2921 21.9646C12.1 22.0118 11.8991 22.0118 11.7071 21.9646C9.27363 21.366 7.25725 20.0394 5.67499 18.0101C3.20934 14.8478 3.23105 11.2517 3.25188 7.80008C3.25378 7.48544 3.25567 7.17201 3.25567 6.86021C3.25567 5.68647 3.99362 4.63666 5.1017 4.24927L11.0971 2.15325Z" fill="#999999"/>
</svg>
