<svg width="24" height="24" viewBox="0 0 24 24" fill="none" xmlns="http://www.w3.org/2000/svg">
<path d="M9.83395 8.10618C10.161 7.14578 10.0781 6.14669 9.92079 4.89033C9.89217 4.81966 9.8615 4.72937 9.82532 4.6261C9.72732 4.34636 9.59594 3.97137 9.40075 3.63301C8.89422 2.75772 7.99404 2.52753 7.08035 2.9676C6.34998 3.31965 5.88975 3.9251 5.56364 4.63887C4.64996 6.63898 4.89213 8.58686 5.97176 10.4274C6.28676 10.9642 6.4803 11.5167 6.60056 12.0884L6.91317 12.0285L9.78022 11.523C9.43528 10.4022 9.4355 9.27777 9.83395 8.10618Z" fill="#999999"/>
<path d="M10.1474 12.4717L10.0413 12.4926L7.09047 13.0128L6.74316 13.0794C6.74567 13.1077 6.74808 13.1361 6.75039 13.1646C6.76453 13.3398 6.77235 13.5162 6.78017 13.6924C6.79583 14.0452 6.81147 14.3976 6.87774 14.7401C7.10062 15.8891 7.88984 16.3998 9.05632 16.2121C10.1186 16.041 10.7283 15.2672 10.5778 14.1492C10.5019 13.5815 10.3637 13.0029 10.1474 12.4717Z" fill="#999999"/>
<path d="M14.1664 13.1068C13.8394 12.1464 13.9223 11.1474 14.0796 9.89115L14.0786 9.89018C14.1073 9.81951 14.1389 9.72923 14.1751 9.62596C14.2731 9.34624 14.4044 8.97128 14.5996 8.63295C15.1052 7.75772 16.0064 7.52755 16.92 7.96758C17.6504 8.31961 18.1106 8.92501 18.4367 9.63873C19.3504 11.6397 19.1083 13.5874 18.0286 15.4278C17.7195 15.9547 17.5273 16.4966 17.4066 17.057L17.2351 17.0282L14.2865 16.5083L14.2282 16.4971C14.5651 15.3851 14.5618 14.2691 14.1664 13.1068Z" fill="#999999"/>
<path d="M13.8639 17.4453C13.6413 17.9836 13.4997 18.5721 13.4226 19.1492C13.272 20.2672 13.8818 21.0409 14.9441 21.212C16.1106 21.3997 16.8998 20.889 17.1227 19.7401C17.1889 19.3976 17.2046 19.0453 17.2202 18.6925C17.228 18.5163 17.2359 18.3399 17.25 18.1647C17.2532 18.1252 17.2566 18.0858 17.2602 18.0465L17.0634 18.0134L14.1013 17.491L13.8639 17.4453Z" fill="#999999"/>
</svg>
