<svg width="24" height="24" viewBox="0 0 24 24" fill="none" xmlns="http://www.w3.org/2000/svg">
<path fill-rule="evenodd" clip-rule="evenodd" d="M2.75 2.75C4.40685 2.75 5.75 4.09315 5.75 5.75V18.25C5.75 18.9997 6.025 19.6852 6.47963 20.211C6.55414 20.121 6.64494 20.0434 6.74927 19.983C7.34968 19.6357 7.75 18.989 7.75 18.25C7.75 17.6977 8.19772 17.25 8.75 17.25H18.25V5.75C18.25 4.09315 16.9069 2.75 15.25 2.75H2.75ZM8.25 6.75C8.25 6.33579 8.58579 6 9 6H15C15.4142 6 15.75 6.33579 15.75 6.75C15.75 7.16421 15.4142 7.5 15 7.5H9C8.58579 7.5 8.25 7.16421 8.25 6.75ZM8.25 9.75C8.25 9.33579 8.58579 9 9 9H15C15.4142 9 15.75 9.33579 15.75 9.75C15.75 10.1642 15.4142 10.5 15 10.5H9C8.58579 10.5 8.25 10.1642 8.25 9.75ZM9 12C8.58579 12 8.25 12.3358 8.25 12.75C8.25 13.1642 8.58579 13.5 9 13.5H12C12.4142 13.5 12.75 13.1642 12.75 12.75C12.75 12.3358 12.4142 12 12 12H9Z" fill="#999999"/>
<path d="M18.25 21.25C19.9069 21.25 21.25 19.9069 21.25 18.25H8.75C8.75 19.3604 8.1467 20.3299 7.25 20.8487C7.69126 21.1039 8.20357 21.25 8.75 21.25H18.25Z" fill="#999999"/>
<path d="M2.75 3.75V4.75C2.75 5.30228 3.19772 5.75 3.75 5.75H4.75C4.75 4.64543 3.85457 3.75 2.75 3.75Z" fill="#999999"/>
</svg>
