<svg width="24" height="24" viewBox="0 0 24 24" fill="none" xmlns="http://www.w3.org/2000/svg">
<path fill-rule="evenodd" clip-rule="evenodd" d="M21.25 12C21.25 17.1086 17.1086 21.25 12 21.25C6.89137 21.25 2.75 17.1086 2.75 12C2.75 6.89137 6.89137 2.75 12 2.75C17.1086 2.75 21.25 6.89137 21.25 12ZM10.7106 5.83699C10.8431 6.22945 10.6323 6.65499 10.2399 6.78745C8.06457 7.52169 6.5 9.57911 6.5 12C6.5 12.4142 6.16421 12.75 5.75 12.75C5.33579 12.75 5 12.4142 5 12C5 8.91623 6.9936 6.30004 9.76014 5.36623C10.1526 5.23376 10.5781 5.44453 10.7106 5.83699ZM15.424 6.71715C15.6892 6.39902 16.1622 6.35615 16.4803 6.62141C18.0189 7.90428 19 9.8379 19 12C19 12.4142 18.6642 12.75 18.25 12.75C17.8358 12.75 17.5 12.4142 17.5 12C17.5 10.3016 16.7311 8.78356 15.5197 7.77348C15.2016 7.50822 15.1587 7.03529 15.424 6.71715ZM13.7451 6.33517C13.7922 5.92363 13.4967 5.55189 13.0852 5.50486C12.6736 5.45783 12.3019 5.75331 12.2549 6.16485L11.5406 12.4148C11.5356 12.4581 11.5345 12.5008 11.5368 12.5428C10.3774 12.76 9.5 13.7775 9.5 15C9.5 16.3807 10.6193 17.5 12 17.5C13.3807 17.5 14.5 16.3807 14.5 15C14.5 13.977 13.8856 13.0976 13.0057 12.7105C13.0174 12.6702 13.0259 12.6283 13.0309 12.5852L13.7451 6.33517Z" fill="#999999"/>
</svg>
